<?xml version="1.0" encoding="UTF-8" standalone="no"?>
<!DOCTYPE svg PUBLIC "-//W3C//DTD SVG 1.1//EN"
 "http://www.w3.org/Graphics/SVG/1.1/DTD/svg11.dtd">
<!-- Generated by graphviz version 2.38.0 (20140413.2041)
 -->
<!-- Title: G Pages: 1 -->
<svg width="745pt" height="1104pt"
 viewBox="0.00 0.00 744.79 1104.00" xmlns="http://www.w3.org/2000/svg" xmlns:xlink="http://www.w3.org/1999/xlink">
<g id="graph0" class="graph" transform="scale(1 1) rotate(0) translate(4 1100)">
<title>G</title>
<polygon fill="white" stroke="none" points="-4,4 -4,-1100 740.787,-1100 740.787,4 -4,4"/>
<g id="clust1" class="cluster"><title>cluster_Global</title>
<path fill="none" stroke="gray" d="M24.8933,-152C24.8933,-152 716.787,-152 716.787,-152 722.787,-152 728.787,-158 728.787,-164 728.787,-164 728.787,-1076 728.787,-1076 728.787,-1082 722.787,-1088 716.787,-1088 716.787,-1088 24.8933,-1088 24.8933,-1088 18.8933,-1088 12.8933,-1082 12.8933,-1076 12.8933,-1076 12.8933,-164 12.8933,-164 12.8933,-158 18.8933,-152 24.8933,-152"/>
<text text-anchor="middle" x="370.84" y="-1075.2" font-family="Times,serif" font-size="11.00" fill="gray">Global</text>
</g>
<g id="clust2" class="cluster"><title>cluster_\MineTurtle</title>
<path fill="none" stroke="gray" d="M32.8933,-502C32.8933,-502 324.787,-502 324.787,-502 330.787,-502 336.787,-508 336.787,-514 336.787,-514 336.787,-1048 336.787,-1048 336.787,-1054 330.787,-1060 324.787,-1060 324.787,-1060 32.8933,-1060 32.8933,-1060 26.8933,-1060 20.8933,-1054 20.8933,-1048 20.8933,-1048 20.8933,-514 20.8933,-514 20.8933,-508 26.8933,-502 32.8933,-502"/>
<text text-anchor="middle" x="178.84" y="-1047.2" font-family="Times,serif" font-size="11.00" fill="gray">MineTurtle</text>
</g>
<g id="clust3" class="cluster"><title>cluster_\MineTurtle\Router</title>
<path fill="none" stroke="gray" d="M247.287,-906C247.287,-906 296.287,-906 296.287,-906 302.287,-906 308.287,-912 308.287,-918 308.287,-918 308.287,-1020 308.287,-1020 308.287,-1026 302.287,-1032 296.287,-1032 296.287,-1032 247.287,-1032 247.287,-1032 241.287,-1032 235.287,-1026 235.287,-1020 235.287,-1020 235.287,-918 235.287,-918 235.287,-912 241.287,-906 247.287,-906"/>
<text text-anchor="middle" x="271.787" y="-1019.2" font-family="Times,serif" font-size="11.00" fill="gray">Router</text>
</g>
<g id="clust4" class="cluster"><title>cluster_\MineTurtle\Database</title>
<path fill="none" stroke="gray" d="M40.8933,-718C40.8933,-718 316.787,-718 316.787,-718 322.787,-718 328.787,-724 328.787,-730 328.787,-730 328.787,-886 328.787,-886 328.787,-892 322.787,-898 316.787,-898 316.787,-898 40.8933,-898 40.8933,-898 34.8933,-898 28.8933,-892 28.8933,-886 28.8933,-886 28.8933,-730 28.8933,-730 28.8933,-724 34.8933,-718 40.8933,-718"/>
<text text-anchor="middle" x="178.84" y="-885.2" font-family="Times,serif" font-size="11.00" fill="gray">Database</text>
</g>
<!-- \\MineTurtle\\Router\\Route -->
<g id="node1" class="node"><title>\\MineTurtle\\Router\\Route</title>
<polygon fill="none" stroke="black" points="298.787,-1004 244.787,-1004 244.787,-968 298.787,-968 298.787,-1004"/>
<text text-anchor="middle" x="271.787" y="-983.2" font-family="Courier,monospace" font-size="11.00">Route</text>
</g>
<!-- \\MineTurtle\\Router\\Router -->
<g id="node2" class="node"><title>\\MineTurtle\\Router\\Router</title>
<polygon fill="none" stroke="black" points="300.287,-950 243.287,-950 243.287,-914 300.287,-914 300.287,-950"/>
<text text-anchor="middle" x="271.787" y="-929.2" font-family="Courier,monospace" font-size="11.00">Router</text>
</g>
<!-- \\MineTurtle\\Database\\Schema -->
<g id="node3" class="node"><title>\\MineTurtle\\Database\\Schema</title>
<polygon fill="none" stroke="black" points="300.287,-762 243.287,-762 243.287,-726 300.287,-726 300.287,-762"/>
<text text-anchor="middle" x="271.787" y="-741.2" font-family="Courier,monospace" font-size="11.00">Schema</text>
</g>
<!-- \\IteratorAggregate -->
<g id="node38" class="node"><title>\\IteratorAggregate</title>
<ellipse fill="none" stroke="black" cx="75.3933" cy="-126" rx="75.2868" ry="18"/>
<text text-anchor="middle" x="75.3933" y="-122.3" font-family="Times,serif" font-size="14.00" fill="gray">\IteratorAggregate</text>
</g>
<!-- \\MineTurtle\\Database\\Schema&#45;&gt;\\IteratorAggregate -->
<g id="edge8" class="edge"><title>\\MineTurtle\\Database\\Schema&#45;&gt;\\IteratorAggregate</title>
<path fill="none" stroke="black" stroke-dasharray="1,5" d="M243.045,-736.266C235.538,-732.965 228.044,-728.358 222.787,-722 148.444,-632.098 94.1705,-259.911 80.0281,-154.146"/>
<polygon fill="none" stroke="black" points="83.4955,-153.669 78.7138,-144.214 76.556,-154.587 83.4955,-153.669"/>
</g>
<!-- \\MineTurtle\\Database\\CSVConnector -->
<g id="node4" class="node"><title>\\MineTurtle\\Database\\CSVConnector</title>
<polygon fill="none" stroke="black" points="320.787,-870 222.787,-870 222.787,-834 320.787,-834 320.787,-870"/>
<text text-anchor="middle" x="271.787" y="-849.2" font-family="Courier,monospace" font-size="11.00">CSVConnector</text>
</g>
<!-- \\MineTurtle\\Database\\Connector -->
<g id="node6" class="node"><title>\\MineTurtle\\Database\\Connector</title>
<polygon fill="none" stroke="black" points="113.893,-843 36.8933,-843 36.8933,-807 113.893,-807 113.893,-843"/>
<text text-anchor="middle" x="75.3933" y="-822.2" font-family="Courier,monospace" font-size="11.00">Connector</text>
</g>
<!-- \\MineTurtle\\Database\\CSVConnector&#45;&gt;\\MineTurtle\\Database\\Connector -->
<g id="edge21" class="edge"><title>\\MineTurtle\\Database\\CSVConnector&#45;&gt;\\MineTurtle\\Database\\Connector</title>
<path fill="none" stroke="black" stroke-dasharray="1,5" d="M222.734,-845.326C192.763,-841.163 154.332,-835.825 124.374,-831.664"/>
<polygon fill="none" stroke="black" points="124.545,-828.154 114.159,-830.245 123.582,-835.088 124.545,-828.154"/>
</g>
<!-- \\MineTurtle\\Database\\PDOConnector -->
<g id="node5" class="node"><title>\\MineTurtle\\Database\\PDOConnector</title>
<polygon fill="none" stroke="black" points="320.787,-816 222.787,-816 222.787,-780 320.787,-780 320.787,-816"/>
<text text-anchor="middle" x="271.787" y="-795.2" font-family="Courier,monospace" font-size="11.00">PDOConnector</text>
</g>
<!-- \\MineTurtle\\Database\\PDOConnector&#45;&gt;\\MineTurtle\\Database\\Connector -->
<g id="edge28" class="edge"><title>\\MineTurtle\\Database\\PDOConnector&#45;&gt;\\MineTurtle\\Database\\Connector</title>
<path fill="none" stroke="black" stroke-dasharray="1,5" d="M222.734,-804.674C192.763,-808.837 154.332,-814.175 124.374,-818.336"/>
<polygon fill="none" stroke="black" points="123.582,-814.912 114.159,-819.755 124.545,-821.846 123.582,-814.912"/>
</g>
<!-- \\MineTurtle\\Model -->
<g id="node7" class="node"><title>\\MineTurtle\\Model</title>
<polygon fill="none" stroke="black" points="298.787,-654 244.787,-654 244.787,-618 298.787,-618 298.787,-654"/>
<text text-anchor="middle" x="271.787" y="-633.2" font-family="Courier,monospace" font-size="11.00">Model</text>
</g>
<!-- \\MineTurtle\\View -->
<g id="node8" class="node"><title>\\MineTurtle\\View</title>
<polygon fill="none" stroke="black" points="298.787,-708 244.787,-708 244.787,-672 298.787,-672 298.787,-708"/>
<text text-anchor="middle" x="271.787" y="-687.2" font-family="Courier,monospace" font-size="11.00">View</text>
</g>
<!-- \\MineTurtle\\Template -->
<g id="node9" class="node"><title>\\MineTurtle\\Template</title>
<polygon fill="none" stroke="black" points="307.287,-600 236.287,-600 236.287,-564 307.287,-564 307.287,-600"/>
<text text-anchor="middle" x="271.787" y="-579.2" font-family="Courier,monospace" font-size="11.00">Template</text>
</g>
<!-- \\MineTurtle\\Collection -->
<g id="node10" class="node"><title>\\MineTurtle\\Collection</title>
<polygon fill="none" stroke="black" points="313.787,-546 229.787,-546 229.787,-510 313.787,-510 313.787,-546"/>
<text text-anchor="middle" x="271.787" y="-525.2" font-family="Courier,monospace" font-size="11.00">Collection</text>
</g>
<!-- \\MineTurtle\\Collection&#45;&gt;\\IteratorAggregate -->
<g id="edge16" class="edge"><title>\\MineTurtle\\Collection&#45;&gt;\\IteratorAggregate</title>
<path fill="none" stroke="black" stroke-dasharray="1,5" d="M262.056,-509.946C231.096,-445.92 126.432,-229.479 89.4608,-153.023"/>
<polygon fill="none" stroke="black" points="92.6039,-151.483 85.0996,-144.004 86.3021,-154.531 92.6039,-151.483"/>
</g>
<!-- \\ArrayAccess -->
<g id="node39" class="node"><title>\\ArrayAccess</title>
<ellipse fill="none" stroke="black" cx="75.3933" cy="-72" rx="58.4896" ry="18"/>
<text text-anchor="middle" x="75.3933" y="-68.3" font-family="Times,serif" font-size="14.00" fill="gray">\ArrayAccess</text>
</g>
<!-- \\MineTurtle\\Collection&#45;&gt;\\ArrayAccess -->
<g id="edge15" class="edge"><title>\\MineTurtle\\Collection&#45;&gt;\\ArrayAccess</title>
<path fill="none" stroke="black" stroke-dasharray="1,5" d="M271.225,-509.732C271.778,-444.74 264.899,-222.058 150.787,-99 146.016,-93.8555 140.189,-89.6891 133.916,-86.3153"/>
<polygon fill="none" stroke="black" points="135.022,-82.9689 124.479,-81.9177 132.065,-89.3139 135.022,-82.9689"/>
</g>
<!-- \\Countable -->
<g id="node40" class="node"><title>\\Countable</title>
<ellipse fill="none" stroke="black" cx="75.3933" cy="-18" rx="49.2915" ry="18"/>
<text text-anchor="middle" x="75.3933" y="-14.3" font-family="Times,serif" font-size="14.00" fill="gray">\Countable</text>
</g>
<!-- \\MineTurtle\\Collection&#45;&gt;\\Countable -->
<g id="edge17" class="edge"><title>\\MineTurtle\\Collection&#45;&gt;\\Countable</title>
<path fill="none" stroke="black" stroke-dasharray="1,5" d="M268.566,-509.827C258.56,-430.663 215.326,-116.672 150.787,-45 144.971,-38.542 137.488,-33.627 129.517,-29.8867"/>
<polygon fill="none" stroke="black" points="130.587,-26.5433 120.005,-26.0135 127.947,-33.0264 130.587,-26.5433"/>
</g>
<!-- \\RegisterView -->
<g id="node11" class="node"><title>\\RegisterView</title>
<polygon fill="none" stroke="black" points="500.787,-1032 402.787,-1032 402.787,-996 500.787,-996 500.787,-1032"/>
<text text-anchor="middle" x="451.787" y="-1011.2" font-family="Courier,monospace" font-size="11.00">RegisterView</text>
</g>
<!-- \\RegisterView&#45;&gt;\\MineTurtle\\View -->
<g id="edge1" class="edge"><title>\\RegisterView&#45;&gt;\\MineTurtle\\View</title>
<path fill="none" stroke="black" d="M402.747,-996.416C399.017,-993.694 395.61,-990.573 392.787,-987 315.996,-889.817 417.257,-808.158 336.787,-714 329.6,-705.591 319.163,-700.124 308.794,-696.571"/>
<polygon fill="none" stroke="black" points="309.562,-693.15 298.982,-693.718 307.607,-699.871 309.562,-693.15"/>
</g>
<!-- \\OrderPlacedView -->
<g id="node12" class="node"><title>\\OrderPlacedView</title>
<polygon fill="none" stroke="black" points="510.787,-978 392.787,-978 392.787,-942 510.787,-942 510.787,-978"/>
<text text-anchor="middle" x="451.787" y="-957.2" font-family="Courier,monospace" font-size="11.00">OrderPlacedView</text>
</g>
<!-- \\OrderPlacedView&#45;&gt;\\MineTurtle\\View -->
<g id="edge2" class="edge"><title>\\OrderPlacedView&#45;&gt;\\MineTurtle\\View</title>
<path fill="none" stroke="black" d="M402.378,-941.874C398.823,-939.278 395.553,-936.333 392.787,-933 328.626,-855.691 403.872,-788.785 336.787,-714 329.461,-705.833 319.079,-700.435 308.804,-696.871"/>
<polygon fill="none" stroke="black" points="309.672,-693.477 299.089,-693.985 307.678,-700.188 309.672,-693.477"/>
</g>
<!-- \\InkoopFactuur -->
<g id="node13" class="node"><title>\\InkoopFactuur</title>
<polygon fill="none" stroke="black" points="703.787,-844 599.787,-844 599.787,-808 703.787,-808 703.787,-844"/>
<text text-anchor="middle" x="651.787" y="-823.2" font-family="Courier,monospace" font-size="11.00">InkoopFactuur</text>
</g>
<!-- \\EatITModel -->
<g id="node19" class="node"><title>\\EatITModel</title>
<polygon fill="none" stroke="black" points="493.787,-546 409.787,-546 409.787,-510 493.787,-510 493.787,-546"/>
<text text-anchor="middle" x="451.787" y="-525.2" font-family="Courier,monospace" font-size="11.00">EatITModel</text>
</g>
<!-- \\InkoopFactuur&#45;&gt;\\EatITModel -->
<g id="edge3" class="edge"><title>\\InkoopFactuur&#45;&gt;\\EatITModel</title>
<path fill="none" stroke="black" d="M599.565,-811.746C593.322,-808.348 587.497,-804.16 582.787,-799 506.556,-715.495 584.576,-640.67 510.787,-555 508.322,-552.139 505.489,-549.561 502.429,-547.242"/>
<polygon fill="none" stroke="black" points="504.187,-544.211 493.896,-541.692 500.37,-550.079 504.187,-544.211"/>
</g>
<!-- \\IndexController -->
<g id="node14" class="node"><title>\\IndexController</title>
<polygon fill="none" stroke="black" points="710.787,-1060 592.787,-1060 592.787,-1024 710.787,-1024 710.787,-1060"/>
<text text-anchor="middle" x="651.787" y="-1039.2" font-family="Courier,monospace" font-size="11.00">IndexController</text>
</g>
<!-- \\EatITController -->
<g id="node17" class="node"><title>\\EatITController</title>
<polygon fill="none" stroke="black" points="510.787,-600 392.787,-600 392.787,-564 510.787,-564 510.787,-600"/>
<text text-anchor="middle" x="451.787" y="-579.2" font-family="Courier,monospace" font-size="11.00">EatITController</text>
</g>
<!-- \\IndexController&#45;&gt;\\EatITController -->
<g id="edge4" class="edge"><title>\\IndexController&#45;&gt;\\EatITController</title>
<path fill="none" stroke="black" d="M592.534,-1024.08C588.909,-1021.45 585.596,-1018.45 582.787,-1015 466.961,-872.984 622.467,-754.299 510.787,-609 510.304,-608.373 509.804,-607.759 509.287,-607.159"/>
<polygon fill="none" stroke="black" points="511.435,-604.377 501.737,-600.112 506.659,-609.494 511.435,-604.377"/>
</g>
<!-- \\LayoutView -->
<g id="node15" class="node"><title>\\LayoutView</title>
<polygon fill="none" stroke="black" points="493.787,-924 409.787,-924 409.787,-888 493.787,-888 493.787,-924"/>
<text text-anchor="middle" x="451.787" y="-903.2" font-family="Courier,monospace" font-size="11.00">LayoutView</text>
</g>
<!-- \\LayoutView&#45;&gt;\\MineTurtle\\View -->
<g id="edge5" class="edge"><title>\\LayoutView&#45;&gt;\\MineTurtle\\View</title>
<path fill="none" stroke="black" d="M409.563,-891.983C403.344,-888.489 397.459,-884.209 392.787,-879 341.076,-821.352 390.675,-769.617 336.787,-714 329.215,-706.185 318.856,-700.89 308.679,-697.311"/>
<polygon fill="none" stroke="black" points="309.659,-693.951 299.073,-694.38 307.616,-700.646 309.659,-693.951"/>
</g>
<!-- \\LoginView -->
<g id="node16" class="node"><title>\\LoginView</title>
<polygon fill="none" stroke="black" points="490.287,-870 413.287,-870 413.287,-834 490.287,-834 490.287,-870"/>
<text text-anchor="middle" x="451.787" y="-849.2" font-family="Courier,monospace" font-size="11.00">LoginView</text>
</g>
<!-- \\LoginView&#45;&gt;\\MineTurtle\\View -->
<g id="edge6" class="edge"><title>\\LoginView&#45;&gt;\\MineTurtle\\View</title>
<path fill="none" stroke="black" d="M413.172,-838.984C405.828,-835.262 398.61,-830.642 392.787,-825 353.103,-786.549 377.919,-750.896 336.787,-714 328.836,-706.869 318.566,-701.785 308.59,-698.191"/>
<polygon fill="none" stroke="black" points="309.398,-694.775 298.808,-695.073 307.272,-701.445 309.398,-694.775"/>
</g>
<!-- \\OrderFormView -->
<g id="node18" class="node"><title>\\OrderFormView</title>
<polygon fill="none" stroke="black" points="503.787,-816 399.787,-816 399.787,-780 503.787,-780 503.787,-816"/>
<text text-anchor="middle" x="451.787" y="-795.2" font-family="Courier,monospace" font-size="11.00">OrderFormView</text>
</g>
<!-- \\OrderFormView&#45;&gt;\\MineTurtle\\View -->
<g id="edge7" class="edge"><title>\\OrderFormView&#45;&gt;\\MineTurtle\\View</title>
<path fill="none" stroke="black" d="M407.372,-779.912C402.299,-777.186 397.323,-774.204 392.787,-771 363.779,-750.511 366.56,-733.359 336.787,-714 328.221,-708.431 318.179,-703.893 308.621,-700.323"/>
<polygon fill="none" stroke="black" points="309.514,-696.928 298.919,-696.95 307.215,-703.54 309.514,-696.928"/>
</g>
<!-- \\EatITModel&#45;&gt;\\MineTurtle\\Model -->
<g id="edge9" class="edge"><title>\\EatITModel&#45;&gt;\\MineTurtle\\Model</title>
<path fill="none" stroke="black" d="M409.595,-545.086C403.778,-548.092 398.007,-551.418 392.787,-555 364.279,-574.564 365.646,-589.959 336.787,-609 328.029,-614.778 317.833,-619.747 308.186,-623.79"/>
<polygon fill="none" stroke="black" points="306.799,-620.575 298.797,-627.519 309.383,-627.08 306.799,-620.575"/>
</g>
<!-- \\Ingredient -->
<g id="node20" class="node"><title>\\Ingredient</title>
<polygon fill="none" stroke="black" points="693.787,-790 609.787,-790 609.787,-754 693.787,-754 693.787,-790"/>
<text text-anchor="middle" x="651.787" y="-769.2" font-family="Courier,monospace" font-size="11.00">Ingredient</text>
</g>
<!-- \\Ingredient&#45;&gt;\\EatITModel -->
<g id="edge10" class="edge"><title>\\Ingredient&#45;&gt;\\EatITModel</title>
<path fill="none" stroke="black" d="M609.728,-761.968C599.931,-757.993 590.183,-752.513 582.787,-745 519.436,-680.645 572.254,-621.156 510.787,-555 508.256,-552.277 505.396,-549.804 502.336,-547.563"/>
<polygon fill="none" stroke="black" points="504.17,-544.582 493.856,-542.158 500.408,-550.485 504.17,-544.582"/>
</g>
<!-- \\ArtikelOrder -->
<g id="node21" class="node"><title>\\ArtikelOrder</title>
<polygon fill="none" stroke="black" points="700.787,-736 602.787,-736 602.787,-700 700.787,-700 700.787,-736"/>
<text text-anchor="middle" x="651.787" y="-715.2" font-family="Courier,monospace" font-size="11.00">ArtikelOrder</text>
</g>
<!-- \\ArtikelOrder&#45;&gt;\\EatITModel -->
<g id="edge11" class="edge"><title>\\ArtikelOrder&#45;&gt;\\EatITModel</title>
<path fill="none" stroke="black" d="M602.571,-703.872C595.436,-700.413 588.556,-696.172 582.787,-691 531.865,-645.344 560.37,-602.107 510.787,-555 508.254,-552.594 505.468,-550.371 502.529,-548.324"/>
<polygon fill="none" stroke="black" points="504.274,-545.287 493.927,-543.009 500.594,-551.242 504.274,-545.287"/>
</g>
<!-- \\IndexView -->
<g id="node22" class="node"><title>\\IndexView</title>
<polygon fill="none" stroke="black" points="490.287,-762 413.287,-762 413.287,-726 490.287,-726 490.287,-762"/>
<text text-anchor="middle" x="451.787" y="-741.2" font-family="Courier,monospace" font-size="11.00">IndexView</text>
</g>
<!-- \\IndexView&#45;&gt;\\MineTurtle\\View -->
<g id="edge12" class="edge"><title>\\IndexView&#45;&gt;\\MineTurtle\\View</title>
<path fill="none" stroke="black" d="M413.037,-732.548C382.231,-723.202 338.996,-710.086 308.698,-700.894"/>
<polygon fill="none" stroke="black" points="309.541,-697.493 298.955,-697.939 307.509,-704.191 309.541,-697.493"/>
</g>
<!-- \\Installer -->
<g id="node23" class="node"><title>\\Installer</title>
<polygon fill="none" stroke="black" points="490.287,-654 413.287,-654 413.287,-618 490.287,-618 490.287,-654"/>
<text text-anchor="middle" x="451.787" y="-633.2" font-family="Courier,monospace" font-size="11.00">Installer</text>
</g>
<!-- \\Installer&#45;&gt;\\MineTurtle\\Model -->
<g id="edge13" class="edge"><title>\\Installer&#45;&gt;\\MineTurtle\\Model</title>
<path fill="none" stroke="black" d="M413.037,-636C382.365,-636 339.372,-636 309.094,-636"/>
<polygon fill="none" stroke="black" points="308.956,-632.5 298.955,-636 308.955,-639.5 308.956,-632.5"/>
</g>
<!-- \\OrderController -->
<g id="node24" class="node"><title>\\OrderController</title>
<polygon fill="none" stroke="black" points="710.787,-1006 592.787,-1006 592.787,-970 710.787,-970 710.787,-1006"/>
<text text-anchor="middle" x="651.787" y="-985.2" font-family="Courier,monospace" font-size="11.00">OrderController</text>
</g>
<!-- \\OrderController&#45;&gt;\\EatITController -->
<g id="edge14" class="edge"><title>\\OrderController&#45;&gt;\\EatITController</title>
<path fill="none" stroke="black" d="M592.635,-969.996C588.987,-967.389 585.641,-964.408 582.787,-961 480.246,-838.589 609.752,-734.318 510.787,-609 510.296,-608.379 509.788,-607.772 509.264,-607.177"/>
<polygon fill="none" stroke="black" points="511.377,-604.366 501.642,-600.186 506.645,-609.525 511.377,-604.366"/>
</g>
<!-- \\Klant -->
<g id="node25" class="node"><title>\\Klant</title>
<polygon fill="none" stroke="black" points="678.787,-682 624.787,-682 624.787,-646 678.787,-646 678.787,-682"/>
<text text-anchor="middle" x="651.787" y="-661.2" font-family="Courier,monospace" font-size="11.00">Klant</text>
</g>
<!-- \\Klant&#45;&gt;\\EatITModel -->
<g id="edge18" class="edge"><title>\\Klant&#45;&gt;\\EatITModel</title>
<path fill="none" stroke="black" d="M624.48,-656.782C611.226,-652.373 595.348,-645.856 582.787,-637 543.149,-609.053 549.602,-584.079 510.787,-555 508.289,-553.129 505.642,-551.344 502.907,-549.648"/>
<polygon fill="none" stroke="black" points="504.372,-546.454 493.952,-544.539 500.903,-552.534 504.372,-546.454"/>
</g>
<!-- \\Maaltijd -->
<g id="node26" class="node"><title>\\Maaltijd</title>
<polygon fill="none" stroke="black" points="687.287,-628 616.287,-628 616.287,-592 687.287,-592 687.287,-628"/>
<text text-anchor="middle" x="651.787" y="-607.2" font-family="Courier,monospace" font-size="11.00">Maaltijd</text>
</g>
<!-- \\Maaltijd&#45;&gt;\\EatITModel -->
<g id="edge19" class="edge"><title>\\Maaltijd&#45;&gt;\\EatITModel</title>
<path fill="none" stroke="black" d="M616.133,-596.413C605.422,-592.167 593.599,-587.433 582.787,-583 556.464,-572.207 527.281,-559.893 503.246,-549.656"/>
<polygon fill="none" stroke="black" points="504.536,-546.402 493.965,-545.698 501.79,-552.841 504.536,-546.402"/>
</g>
<!-- \\MaaltijdController -->
<g id="node27" class="node"><title>\\MaaltijdController</title>
<polygon fill="none" stroke="black" points="720.787,-952 582.787,-952 582.787,-916 720.787,-916 720.787,-952"/>
<text text-anchor="middle" x="651.787" y="-931.2" font-family="Courier,monospace" font-size="11.00">MaaltijdController</text>
</g>
<!-- \\MaaltijdController&#45;&gt;\\EatITController -->
<g id="edge20" class="edge"><title>\\MaaltijdController&#45;&gt;\\EatITController</title>
<path fill="none" stroke="black" d="M592.768,-915.882C589.09,-913.301 585.701,-910.357 582.787,-907 493.461,-804.11 597.107,-714.425 510.787,-609 510.186,-608.267 509.562,-607.553 508.915,-606.857"/>
<polygon fill="none" stroke="black" points="511.057,-604.079 501.243,-600.086 506.425,-609.328 511.057,-604.079"/>
</g>
<!-- \\Leverancier -->
<g id="node28" class="node"><title>\\Leverancier</title>
<polygon fill="none" stroke="black" points="697.287,-574 606.287,-574 606.287,-538 697.287,-538 697.287,-574"/>
<text text-anchor="middle" x="651.787" y="-553.2" font-family="Courier,monospace" font-size="11.00">Leverancier</text>
</g>
<!-- \\Leverancier&#45;&gt;\\EatITModel -->
<g id="edge22" class="edge"><title>\\Leverancier&#45;&gt;\\EatITModel</title>
<path fill="none" stroke="black" d="M605.857,-549.646C575.485,-545.351 535.319,-539.671 503.753,-535.207"/>
<polygon fill="none" stroke="black" points="504.221,-531.739 493.829,-533.804 503.241,-538.67 504.221,-531.739"/>
</g>
<!-- \\TableView -->
<g id="node29" class="node"><title>\\TableView</title>
<polygon fill="none" stroke="black" points="490.287,-708 413.287,-708 413.287,-672 490.287,-672 490.287,-708"/>
<text text-anchor="middle" x="451.787" y="-687.2" font-family="Courier,monospace" font-size="11.00">TableView</text>
</g>
<!-- \\TableView&#45;&gt;\\MineTurtle\\View -->
<g id="edge23" class="edge"><title>\\TableView&#45;&gt;\\MineTurtle\\View</title>
<path fill="none" stroke="black" d="M413.037,-690C382.365,-690 339.372,-690 309.094,-690"/>
<polygon fill="none" stroke="black" points="308.956,-686.5 298.955,-690 308.955,-693.5 308.956,-686.5"/>
</g>
<!-- \\Artikel -->
<g id="node30" class="node"><title>\\Artikel</title>
<polygon fill="none" stroke="black" points="683.787,-520 619.787,-520 619.787,-484 683.787,-484 683.787,-520"/>
<text text-anchor="middle" x="651.787" y="-499.2" font-family="Courier,monospace" font-size="11.00">Artikel</text>
</g>
<!-- \\Artikel&#45;&gt;\\EatITModel -->
<g id="edge24" class="edge"><title>\\Artikel&#45;&gt;\\EatITModel</title>
<path fill="none" stroke="black" d="M619.413,-506.12C588.415,-510.19 540.472,-516.486 503.957,-521.281"/>
<polygon fill="none" stroke="black" points="503.443,-517.818 493.984,-522.59 504.355,-524.758 503.443,-517.818"/>
</g>
<!-- \\Order -->
<g id="node31" class="node"><title>\\Order</title>
<polygon fill="none" stroke="black" points="678.787,-466 624.787,-466 624.787,-430 678.787,-430 678.787,-466"/>
<text text-anchor="middle" x="651.787" y="-445.2" font-family="Courier,monospace" font-size="11.00">Order</text>
</g>
<!-- \\Order&#45;&gt;\\EatITModel -->
<g id="edge25" class="edge"><title>\\Order&#45;&gt;\\EatITModel</title>
<path fill="none" stroke="black" d="M624.609,-458.329C611.962,-463.336 596.574,-469.452 582.787,-475 556.537,-485.562 527.361,-497.444 503.311,-507.276"/>
<polygon fill="none" stroke="black" points="501.954,-504.05 494.024,-511.076 504.604,-510.529 501.954,-504.05"/>
</g>
<!-- \\OrderRegel -->
<g id="node32" class="node"><title>\\OrderRegel</title>
<polygon fill="none" stroke="black" points="693.787,-412 609.787,-412 609.787,-376 693.787,-376 693.787,-412"/>
<text text-anchor="middle" x="651.787" y="-391.2" font-family="Courier,monospace" font-size="11.00">OrderRegel</text>
</g>
<!-- \\OrderRegel&#45;&gt;\\EatITModel -->
<g id="edge26" class="edge"><title>\\OrderRegel&#45;&gt;\\EatITModel</title>
<path fill="none" stroke="black" d="M609.537,-407.995C600.47,-411.719 591.1,-416.092 582.787,-421 543.322,-444.299 503.437,-479.192 478.449,-502.74"/>
<polygon fill="none" stroke="black" points="476.014,-500.226 471.189,-509.658 480.843,-505.293 476.014,-500.226"/>
</g>
<!-- \\LoginController -->
<g id="node33" class="node"><title>\\LoginController</title>
<polygon fill="none" stroke="black" points="710.787,-898 592.787,-898 592.787,-862 710.787,-862 710.787,-898"/>
<text text-anchor="middle" x="651.787" y="-877.2" font-family="Courier,monospace" font-size="11.00">LoginController</text>
</g>
<!-- \\LoginController&#45;&gt;\\EatITController -->
<g id="edge27" class="edge"><title>\\LoginController&#45;&gt;\\EatITController</title>
<path fill="none" stroke="black" d="M593.273,-861.934C589.43,-859.338 585.87,-856.377 582.787,-853 506.556,-769.495 584.576,-694.67 510.787,-609 510.062,-608.158 509.305,-607.341 508.52,-606.548"/>
<polygon fill="none" stroke="black" points="510.693,-603.802 500.789,-600.039 506.184,-609.157 510.693,-603.802"/>
</g>
<!-- \\InkoopOrder -->
<g id="node34" class="node"><title>\\InkoopOrder</title>
<polygon fill="none" stroke="black" points="697.287,-358 606.287,-358 606.287,-322 697.287,-322 697.287,-358"/>
<text text-anchor="middle" x="651.787" y="-337.2" font-family="Courier,monospace" font-size="11.00">InkoopOrder</text>
</g>
<!-- \\InkoopOrder&#45;&gt;\\EatITModel -->
<g id="edge29" class="edge"><title>\\InkoopOrder&#45;&gt;\\EatITModel</title>
<path fill="none" stroke="black" d="M606.241,-353.854C598.037,-357.446 589.844,-361.803 582.787,-367 532.199,-404.253 490.063,-465.738 468.437,-500.965"/>
<polygon fill="none" stroke="black" points="465.31,-499.374 463.14,-509.744 471.303,-502.991 465.31,-499.374"/>
</g>
<!-- \\ViewGenerator -->
<g id="node35" class="node"><title>\\ViewGenerator</title>
<polygon fill="none" stroke="black" points="703.787,-304 599.787,-304 599.787,-268 703.787,-268 703.787,-304"/>
<text text-anchor="middle" x="651.787" y="-283.2" font-family="Courier,monospace" font-size="11.00">ViewGenerator</text>
</g>
<!-- \\EmailTrait -->
<g id="node36" class="node"><title>\\EmailTrait</title>
<polygon fill="none" stroke="black" points="693.787,-250 609.787,-250 609.787,-214 693.787,-214 693.787,-250"/>
<text text-anchor="middle" x="651.787" y="-229.2" font-family="Courier,monospace" font-size="11.00">EmailTrait</text>
</g>
<!-- \\AuthTrait -->
<g id="node37" class="node"><title>\\AuthTrait</title>
<polygon fill="none" stroke="black" points="690.287,-196 613.287,-196 613.287,-160 690.287,-160 690.287,-196"/>
<text text-anchor="middle" x="651.787" y="-175.2" font-family="Courier,monospace" font-size="11.00">AuthTrait</text>
</g>
</g>
</svg>
